<?xml version="1.0" encoding="UTF-8"?>
<svg width="57px" height="29px" viewBox="0 0 57 29" version="1.1" xmlns="http://www.w3.org/2000/svg" xmlns:xlink="http://www.w3.org/1999/xlink">
 
 
<!-- Generator: Sketch 61 (89581) - https://sketch.com -->
 
 
<title>Group 45</title>
 
 
<desc>Created with Sketch.</desc>
 
 
<g id="-Home_Jul2020-//alternativa-realista-desarrollo" stroke="none" stroke-width="1" fill="none" fill-rule="evenodd">
 
 
 
 
<g id="HOME---CYBER" transform="translate(-913.000000, -7549.000000)" fill="#FFC220" fill-rule="nonzero">
 
 
 
 
 
 
<g id="Group-113" transform="translate(-20.000000, 7513.000000)">
 
 
 
 
 
 
 
 
<g id="Group-40">
 
 
 
 
 
 
 
 
 
 
<g id="Group-42">
 
 
 
 
 
 
 
 
 
 
 
 
<g id="Group-68">
 
 
 
 
 
 
 
 
 
 
 
 
 
 
<g id="Group-72" transform="translate(628.000000, 36.000000)">
 
 
 
 
 
 
 
 
 
 
 
 
 
 
 
 
<g id="Group-45" transform="translate(305.000000, 0.000000)">
 
 
 
 
 
 
 
 
 
 
 
 
 
 
 
 
 
 
<path d="M19.4669174,27.2993775 C20.2218608,26.0065555 20.161478,24.5531591 19.3712584,23.9067481 L5.59461488,14.2901585 C4.16513259,13.4632397 2.01582429,14.4605414 0.797681642,16.5601906 C-0.425386967,18.6649023 -0.208962458,21.0102383 1.22051983,21.8371571 L16.4719327,28.9079695 C17.4282049,29.2588602 18.7219849,28.5822328 19.4720023,27.2894108 L19.4669174,27.2993775 Z" id="6"/>
 
 
 
 
 
 
 
 
 
 
 
 
 
 
 
 
 
 
<path d="M37.5244941,27.2918889 C38.2746329,28.5850466 39.5683047,29.2616087 40.5248907,28.9057648 L55.7787742,21.8388868 C57.2135737,21.0120127 57.4200208,18.6663547 56.2067665,16.5613541 C54.9834998,14.4561953 52.8336844,13.4638198 51.4039705,14.2908522 L37.6250953,23.9087619 C36.8396745,24.5554198 36.7794409,26.0088575 37.5294208,27.301857 L37.5244941,27.2918889 Z" id="2"/>
 
 
 
 
 
 
 
 
 
 
 
 
 
 
 
 
 
 
<path d="M28.4923211,22 C30.0344733,22 31.3077007,21.203997 31.4784337,20.1769747 L33,3.08122886 C33,1.38660162 31.00757,0 28.4975493,0 C25.9925934,0 24,1.38660162 24,3.08122886 L25.5215663,20.1769747 C25.6872345,21.203997 26.9604618,22 28.4975493,22 L28.4923211,22 Z" id="1"/>
 
 
 
 
 
 
 
 
 
 
 
 
 
 
 
 
</g>
 
 
 
 
 
 
 
 
 
 
 
 
 
 
</g>
 
 
 
 
 
 
 
 
 
 
 
 
</g>
 
 
 
 
 
 
 
 
 
 
</g>
 
 
 
 
 
 
 
 
</g>
 
 
 
 
 
 
</g>
 
 
 
 
</g>
 
 
</g>
</svg>
