<svg width="43" height="43" viewBox="0 0 43 43" fill="none" xmlns="http://www.w3.org/2000/svg">
<path fill-rule="evenodd" clip-rule="evenodd" d="M35.8333 5.375H7.16665C5.19581 5.375 3.58331 6.9875 3.58331 8.95833V34.0417C3.58331 36.0125 5.19581 37.625 7.16665 37.625H35.8333C37.8041 37.625 39.4166 36.0125 39.4166 34.0417V8.95833C39.4166 6.9875 37.8041 5.375 35.8333 5.375ZM35.8333 34.0417H7.16665V8.95833H35.8333V34.0417Z" fill="#0072D2"/>
<path fill-rule="evenodd" clip-rule="evenodd" d="M34.7762 18.6692L32.2321 16.125L26.5525 21.8046L24.0262 19.2604L21.5 21.7867L26.5525 26.875L34.7762 18.6692Z" fill="#0072D2"/>
<path d="M17.9166 12.5416H8.95831V16.125H17.9166V12.5416Z" fill="#0072D2"/>
<path d="M17.9166 19.7084H8.95831V23.2917H17.9166V19.7084Z" fill="#0072D2"/>
<path d="M17.9166 26.875H8.95831V30.4583H17.9166V26.875Z" fill="#0072D2"/>
</svg>
